
<global>
ampeg_attack=0.001
ampeg_release=1.5
</global>

<group>
group_label=RR2
seq_length=4
seq_position=1

<region>
hivel=103
key=D3
lovel=78
offset=2787
sample=Bass_a3_HotRods_Hits_F_D4_RR2.opus
</region>

<region>
hivel=127
key=D3
lovel=104
offset=2296
sample=Bass_a3_HotRods_Hits_FF_D4_RR2.opus
</region>

<region>
hivel=77
key=D3
lovel=52
offset=6213
sample=Bass_a3_HotRods_Hits_MF_D4_RR2.opus
</region>

<region>
hivel=51
key=D3
lovel=26
offset=6116
sample=Bass_a3_HotRods_Hits_MP_D4_RR2.opus
</region>

<region>
hivel=25
key=D3
lovel=0
offset=5109
sample=Bass_a3_HotRods_Hits_P_D4_RR2.opus
</region>
</group>

<group>
group_label=RR4
seq_length=4
seq_position=2

<region>
hivel=103
key=D3
lovel=78
offset=6388
sample=Bass_a3_HotRods_Hits_F_D4_RR4.opus
</region>

<region>
hivel=127
key=D3
lovel=104
offset=1998
sample=Bass_a3_HotRods_Hits_FF_D4_RR4.opus
</region>

<region>
hivel=77
key=D3
lovel=52
offset=6927
sample=Bass_a3_HotRods_Hits_MF_D4_RR4.opus
</region>

<region>
hivel=51
key=D3
lovel=26
offset=5975
sample=Bass_a3_HotRods_Hits_MP_D4_RR4.opus
</region>

<region>
hivel=25
key=D3
lovel=0
offset=3847
sample=Bass_a3_HotRods_Hits_P_D4_RR4.opus
</region>
</group>

<group>
group_label=RR6
seq_length=4
seq_position=3

<region>
hivel=103
key=D3
lovel=78
offset=7147
sample=Bass_a3_HotRods_Hits_F_D4_RR6.opus
</region>

<region>
hivel=127
key=D3
lovel=104
offset=6693
sample=Bass_a3_HotRods_Hits_FF_D4_RR6.opus
</region>

<region>
hivel=77
key=D3
lovel=52
offset=5666
sample=Bass_a3_HotRods_Hits_MF_D4_RR6.opus
</region>

<region>
hivel=51
key=D3
lovel=26
offset=5880
sample=Bass_a3_HotRods_Hits_MP_D4_RR6.opus
</region>

<region>
hivel=25
key=D3
lovel=0
offset=4130
sample=Bass_a3_HotRods_Hits_P_D4_RR6.opus
</region>
</group>

<group>
group_label=RR8
seq_length=4
seq_position=4

<region>
hivel=103
key=D3
lovel=78
offset=7369
sample=Bass_a3_HotRods_Hits_F_D4_RR8.opus
</region>

<region>
hivel=127
key=D3
lovel=104
offset=401
sample=Bass_a3_HotRods_Hits_FF_D4_RR8.opus
</region>

<region>
hivel=77
key=D3
lovel=52
offset=7559
sample=Bass_a3_HotRods_Hits_MF_D4_RR8.opus
</region>

<region>
hivel=51
key=D3
lovel=26
offset=5803
sample=Bass_a3_HotRods_Hits_MP_D4_RR8.opus
</region>

<region>
hivel=25
key=D3
lovel=0
offset=5666
sample=Bass_a3_HotRods_Hits_P_D4_RR8.opus
</region>
</group>

<group>
group_label=Rim_RR2
seq_length=2
seq_position=1

<region>
hivel=103
key=E3
lovel=78
offset=7360
sample=Bass_a3_HotRods_Rim_Hit_F_D4_RR2.opus
</region>

<region>
hivel=127
key=E3
lovel=104
offset=6615
sample=Bass_a3_HotRods_Rim_Hit_FF_D4_RR2.opus
</region>

<region>
hivel=77
key=E3
lovel=52
offset=6159
sample=Bass_a3_HotRods_Rim_Hit_MF_D4_RR2.opus
</region>

<region>
hivel=51
key=E3
lovel=26
offset=5278
sample=Bass_a3_HotRods_Rim_Hit_MP_D4_RR2.opus
</region>

<region>
hivel=25
key=E3
lovel=0
offset=6552
sample=Bass_a3_HotRods_Rim_Hit_P_D4_RR2.opus
</region>
</group>

<group>
group_label=Rim_RR4
seq_length=2
seq_position=2

<region>
hivel=103
key=E3
lovel=78
offset=6293
sample=Bass_a3_HotRods_Rim_Hit_F_D4_RR4.opus
</region>

<region>
hivel=127
key=E3
lovel=104
offset=6531
sample=Bass_a3_HotRods_Rim_Hit_FF_D4_RR4.opus
</region>

<region>
hivel=77
key=E3
lovel=52
offset=6875
sample=Bass_a3_HotRods_Rim_Hit_MF_D4_RR4.opus
</region>

<region>
hivel=51
key=E3
lovel=26
offset=7217
sample=Bass_a3_HotRods_Rim_Hit_MP_D4_RR4.opus
</region>

<region>
hivel=25
key=E3
lovel=0
offset=5766
sample=Bass_a3_HotRods_Rim_Hit_P_D4_RR4.opus
</region>
</group>